# xmcd CD database file
#
# Track frame offsets:
#	150
#	19993
#	35837
#	57622
#	75664
#	96092
#	113999
#	131043
#	143795
#	162906
#	182827
#	194410
#
# Disc length: 2781 seconds
#
# Revision: 0
# Processed by: cddbd v1.5.2PL0 Copyright (c) Steve Scherf et al.
# Submitted via: CDex 1.51
#
DISCID=af0adb0c
DTITLE=Koller, Hans - Mond and Sternlein
DYEAR=2008
DGENRE=Jazz
TTITLE0=Ade zur guten Nacht
TTITLE1=Weiﬂt du wieviel Sternlein stehen
TTITLE2=Die Nacht ist kommen
TTITLE3=Der Mond ist aufgegangen
TTITLE4=Hinunter ist der Sonne Schein
TTITLE5=Gebet aus H‰nsel und Gretel
TTITLE6=Abend wird es wieder
TTITLE7=Der Tag hat sich geneiget
TTITLE8=Nun ruhen alle W‰lder
TTITLE9=String Quartet - movement one
TTITLE10=String Quartet - movement two
TTITLE11=String Quartet - movement three
EXTD=YEAR: 2008
EXTT0=
EXTT1=
EXTT2=
EXTT3=
EXTT4=
EXTT5=
EXTT6=
EXTT7=
EXTT8=
EXTT9=
EXTT10=
EXTT11=
PLAYORDER=
